# xmcd
#
# Track frame offsets: 
#        150
#        12437
#        24045
#        36857
#        48290
#        59920
#        73875
#        84275
#        97267
#        111465
#        123022
#        137202
#        152077
#        164782
#        172340
#        186247
#
# Disc length: 2629 seconds
#
# Revision: 1
# Processed by: cddbd v1.5.2PL0 Copyright (c) Steve Scherf et al.
# Submitted via: ExactAudioCopy v0.90b4
#
DISCID=ea0a4310
DTITLE=Ray Charles - Late in the evening, Early years 1947-51
DYEAR=2002
DGENRE=Soul
TTITLE0=Honey, Honey
TTITLE1=What Have I Done
TTITLE2=You'll Always Miss the Water
TTITLE3=She's On The Ball
TTITLE4=How Long
TTITLE5=Some Day
TTITLE6=Ain't That Fine
TTITLE7=Don't Put All Your Dreams In Your Basket
TTITLE8=Kissa Me Baby
TTITLE9=Guitar Blues
TTITLE10=Walkin' and Talkin'
TTITLE11=I'm Wonderin' And Wonderin'
TTITLE12=Lonely Boy
TTITLE13=Ray's Blues
TTITLE14=Late In The Evening
TTITLE15=I'll Do Anything But Work
EXTD=
EXTT0=
EXTT1=
EXTT2=
EXTT3=
EXTT4=
EXTT5=
EXTT6=
EXTT7=
EXTT8=
EXTT9=
EXTT10=
EXTT11=
EXTT12=
EXTT13=
EXTT14=
EXTT15=
PLAYORDER=
